<svg width="240" height="64" viewBox="0 0 240 64" fill="none" xmlns="http://www.w3.org/2000/svg">
  <defs>
    <linearGradient id="c2-accent" x1="10" y1="10" x2="54" y2="54" gradientUnits="userSpaceOnUse">
      <stop stop-color="#FDBA74"/>
      <stop offset="1" stop-color="#EA580C"/>
    </linearGradient>
  </defs>
  <rect x="10" y="10" width="44" height="44" rx="14" fill="#0F172A"/>
  <path d="M40.7 21.4C38.7 19.5 35.8 18.3 32.7 18.3C27.4 18.3 22.9 21.7 21 26.5C19.7 29.8 20.2 32.6 23.5 34.1L33.5 38.6C35.4 39.4 35.9 41.7 34.5 43.1C33.5 44.1 32.1 44.7 30.6 44.7C27.9 44.7 25.5 43.2 24.2 40.9" stroke="white" stroke-width="4.8" stroke-linecap="round"/>
  <path d="M39.4 22.2L42.4 18.8L45.2 22.2L42.4 25.6L39.4 22.2Z" fill="url(#c2-accent)"/>
  <path d="M25 42.2L21.8 45.8L18.8 42.2L21.8 38.6L25 42.2Z" fill="url(#c2-accent)"/>
  <text x="72" y="31" fill="#0F172A" font-family="Segoe UI, Arial, sans-serif" font-size="20" font-weight="800" letter-spacing="0.8">SNSAUTO</text>
  <text x="72" y="46" fill="#F97316" font-family="Segoe UI, Arial, sans-serif" font-size="10" font-weight="700" letter-spacing="2">SMART FLOW</text>
</svg>
